<svg width="20" height="20" viewBox="0 0 20 20" fill="none" xmlns="http://www.w3.org/2000/svg">
<path d="M0.0119379 19.2577C0.16713 18.9175 0.435732 18.7921 0.799837 18.8279C0.931154 18.8399 1.06844 18.8279 1.22363 18.8279C1.22363 18.7324 1.22363 18.6548 1.22363 18.5832C1.22363 16.5418 1.22363 14.4945 1.22363 12.4531C1.22363 11.9338 1.43254 11.7249 1.95781 11.7249C2.66215 11.7249 3.36051 11.7249 4.06485 11.7249C4.50655 11.7249 4.73337 11.9517 4.73337 12.3994C4.73337 14.4527 4.73337 16.512 4.73337 18.5653C4.73337 18.6429 4.73337 18.7205 4.73337 18.816C5.12135 18.816 5.50336 18.816 5.90328 18.816C5.90328 18.7503 5.90328 18.6787 5.90328 18.6071C5.90328 17.3238 5.90328 16.0405 5.90328 14.7631C5.90328 14.2916 6.12413 14.0647 6.5897 14.0647C7.30001 14.0647 8.01031 14.0647 8.71465 14.0647C9.19813 14.0647 9.41301 14.2856 9.41301 14.775C9.41301 16.0524 9.41301 17.3238 9.41301 18.6011C9.41301 18.6728 9.41301 18.7384 9.41301 18.822C9.80696 18.822 10.183 18.822 10.5829 18.822C10.5829 18.7503 10.5829 18.6728 10.5829 18.6011C10.5829 15.7778 10.5829 12.9545 10.5829 10.1312C10.5829 9.594 10.7859 9.38509 11.3231 9.38509C12.0155 9.38509 12.7019 9.38509 13.3943 9.38509C13.8778 9.38509 14.0986 9.60594 14.0986 10.0835C14.0986 12.9127 14.0986 15.742 14.0986 18.5772C14.0986 18.6548 14.0986 18.7324 14.0986 18.822C14.4926 18.822 14.8686 18.822 15.2685 18.822C15.2685 18.7444 15.2685 18.6668 15.2685 18.5892C15.2685 14.6019 15.2685 10.6147 15.2685 6.62147C15.2685 6.07233 15.4715 5.86938 16.0206 5.86938C16.7011 5.86938 17.3875 5.86938 18.068 5.86938C18.5634 5.86938 18.7842 6.08427 18.7842 6.57969C18.7842 10.5789 18.7842 14.584 18.7842 18.5832C18.7842 18.6608 18.7842 18.7384 18.7842 18.8279C18.9752 18.8279 19.1483 18.8279 19.3274 18.8279C19.6796 18.8279 19.9124 18.9951 19.984 19.2935C20.0497 19.5741 19.9124 19.8128 19.59 19.974C19.5781 19.9799 19.5721 19.9919 19.5662 20.0038C13.1854 20.0038 6.81056 20.0038 0.429763 20.0038C0.238757 19.9083 0.095503 19.7651 0 19.5741C0.0119379 19.4666 0.0119379 19.3592 0.0119379 19.2577Z" fill="white"/>
<path d="M5.91511 9.74273C5.34806 9.45622 4.77504 9.17568 4.20203 8.8832C3.80808 9.22343 3.36041 9.40847 2.84111 9.36071C2.42328 9.3249 2.06515 9.15777 1.76073 8.87126C1.21159 8.35196 1.0743 7.46856 1.43244 6.80601C1.81445 6.08974 2.60235 5.71966 3.37234 5.89873C4.0528 6.05989 4.79295 6.65082 4.7452 7.8267C4.78698 7.85057 4.82876 7.87445 4.87652 7.89833C5.40178 8.16096 5.92108 8.42359 6.45231 8.68622C7.04324 8.1908 7.69385 8.05352 8.39222 8.35196C9.18609 7.5581 9.96205 6.78213 10.7559 5.98827C10.4634 5.24215 10.5649 4.53781 11.1857 3.9827C11.8363 3.39178 12.5705 3.37387 13.3405 3.79767C14.015 3.29031 14.6894 2.78892 15.358 2.28156C15.2386 1.13552 15.5788 0.425217 16.3906 0.120801C17.1725 -0.177646 18.0321 0.0909564 18.4976 0.771415C18.9513 1.43994 18.8856 2.32931 18.3186 2.95008C17.8291 3.48728 16.9397 3.74395 16.0623 3.21868C15.3938 3.72007 14.7133 4.22743 14.0388 4.73479C14.4626 6.27477 12.9465 7.46259 11.6453 6.87764C10.8574 7.66554 10.0814 8.4415 9.28159 9.24134C9.5681 9.98148 9.46066 10.6918 8.82795 11.2588C8.29075 11.7423 7.65207 11.8438 6.98952 11.5573C6.20759 11.235 5.8793 10.5903 5.91511 9.74273Z" fill="white"/>
</svg>
