<svg width="24" height="21" viewBox="0 0 24 21" fill="none" xmlns="http://www.w3.org/2000/svg">
<path d="M3.44444 1L1 3.5" stroke="#C19752" stroke-width="2" stroke-linecap="round"/>
<path d="M20.5556 1L23 3.5" stroke="#C19752" stroke-width="2" stroke-linecap="round"/>
<path fill-rule="evenodd" clip-rule="evenodd" d="M11.9999 21C17.4001 21 21.7777 16.5228 21.7777 11C21.7777 5.47715 17.4001 1 11.9999 1C6.59983 1 2.22217 5.47715 2.22217 11C2.22217 16.5228 6.59983 21 11.9999 21ZM15.2321 8.49112C15.5724 8.05611 15.4956 7.42762 15.0606 7.08735C14.6256 6.74707 13.9971 6.82387 13.6568 7.25888L11.7894 9.64612L8.89667 7.67377C8.44036 7.36265 7.81823 7.48035 7.50711 7.93666C7.19598 8.39298 7.31368 9.01511 7.77 9.32623L11.2432 11.6943C11.7874 12.0654 12.5261 11.9505 12.9319 11.4317L15.2321 8.49112Z" fill="#C19752"/>
</svg>
