<svg width="24" height="24" viewBox="0 0 24 24" fill="none" xmlns="http://www.w3.org/2000/svg">
<mask id="mask0_608_962" style="mask-type:alpha" maskUnits="userSpaceOnUse" x="0" y="0" width="24" height="24">
<rect width="24" height="24" fill="#D9D9D9"/>
</mask>
<g mask="url(#mask0_608_962)">
<path d="M12.2524 1.60528C12.3666 1.63783 12.4861 1.66496 12.6003 1.70293C13.5025 2.01759 14.0188 2.96156 13.7851 3.87299C13.5568 4.77356 12.6601 5.38118 11.7741 5.24013C10.785 5.0828 10.111 4.25817 10.1762 3.28707C10.2306 2.50585 10.8067 1.83856 11.5893 1.64868C11.6491 1.6324 11.7035 1.61613 11.7633 1.59985C11.9263 1.60528 12.0894 1.60528 12.2524 1.60528Z" fill="#06254F"/>
<path d="M15.0621 16.8988C15.0621 18.4884 15.0621 20.0779 15.0621 21.6675C15.0621 22.1721 14.8339 22.3999 14.3338 22.3999C12.7794 22.3999 11.225 22.3999 9.67055 22.3999C9.1814 22.3999 8.95312 22.1666 8.95312 21.6784C8.95312 18.4775 8.95312 15.2767 8.95312 12.0813C8.95312 11.593 9.18683 11.3597 9.67599 11.3597C11.2359 11.3597 12.8012 11.3597 14.361 11.3597C14.8339 11.3597 15.0676 11.5984 15.0676 12.0759C15.0621 13.6763 15.0621 15.2875 15.0621 16.8988Z" fill="#06254F"/>
<path d="M1.61097 18.0758C1.61097 16.8877 1.61097 15.6941 1.61097 14.506C1.61097 14.0178 1.84468 13.7899 2.33383 13.7899C3.88826 13.7899 5.44269 13.7899 6.99712 13.7899C7.48627 13.7899 7.71998 14.0232 7.71998 14.506C7.71998 16.8985 7.71998 19.2964 7.71998 21.6889C7.71998 22.1609 7.48084 22.3942 7.00255 22.3942C5.44269 22.3942 3.87739 22.3942 2.31753 22.3942C1.83924 22.3942 1.60553 22.1609 1.6001 21.6889C1.61097 20.4845 1.61097 19.2802 1.61097 18.0758Z" fill="#06254F"/>
<path d="M16.2856 19.2915C16.2856 18.4995 16.2856 17.7074 16.2856 16.9153C16.2856 16.465 16.5302 16.2263 16.9759 16.2263C18.5575 16.2263 20.1391 16.2263 21.7207 16.2263C22.1555 16.2263 22.4001 16.4759 22.4001 16.9099C22.4001 18.5103 22.4001 20.1161 22.4001 21.7166C22.4001 22.1506 22.1555 22.4001 21.7207 22.4001C20.1391 22.4001 18.5575 22.4001 16.9759 22.4001C16.5302 22.4001 16.2856 22.156 16.2856 21.7057C16.2856 20.9028 16.2856 20.0944 16.2856 19.2915Z" fill="#06254F"/>
<path d="M14.0838 5.66882C14.6925 6.25474 15.024 6.94373 15.0566 7.76293C15.0784 8.20779 15.0675 8.65808 15.0621 9.10294C15.0566 9.47185 14.8012 9.72683 14.4316 9.72683C12.8174 9.73226 11.1977 9.72683 9.58352 9.72683C9.25199 9.72683 8.96393 9.50983 8.96393 9.20059C8.96393 8.52787 8.95849 7.84431 9.05089 7.18244C9.13241 6.5911 9.47482 6.09741 9.93137 5.67425C10.5292 6.19506 11.214 6.48259 12.0076 6.47717C12.7902 6.47717 13.475 6.20049 14.0838 5.66882Z" fill="#06254F"/>
<path d="M6.74685 8.10486C7.35557 8.69077 7.68168 9.37977 7.71972 10.199C7.74146 10.6438 7.73059 11.0941 7.72516 11.539C7.71972 11.9079 7.46427 12.1629 7.09469 12.1629C5.48048 12.1683 3.86083 12.1629 2.24661 12.1629C1.91507 12.1629 1.62701 11.9459 1.62701 11.6366C1.62701 10.9639 1.62158 10.2803 1.71397 9.61847C1.7955 9.02713 2.13791 8.53344 2.59446 8.10486C3.19231 8.6311 3.88257 8.91321 4.67065 8.91321C5.4533 8.91321 6.13812 8.63652 6.74685 8.10486Z" fill="#06254F"/>
<path d="M17.2638 10.5457C18.4975 11.6253 20.2096 11.6036 21.4162 10.5457C21.4651 10.5891 21.514 10.627 21.5575 10.6759C22.101 11.2618 22.3836 11.9508 22.3945 12.7483C22.3999 13.1497 22.3999 13.5458 22.3945 13.9472C22.3891 14.3433 22.139 14.5928 21.7423 14.5928C20.1389 14.5928 18.5356 14.5928 16.9377 14.5928C16.5409 14.5928 16.2746 14.3378 16.2855 13.9472C16.3018 13.3179 16.2909 12.6886 16.3779 12.0701C16.4648 11.4788 16.8072 10.9742 17.2638 10.5457Z" fill="#06254F"/>
<path d="M6.5021 5.86929C6.5021 6.87837 5.67054 7.70299 4.65961 7.69756C3.65413 7.69214 2.83887 6.87294 2.83887 5.86929C2.83887 4.86021 3.67043 4.04102 4.68679 4.04102C5.68684 4.04644 6.5021 4.86564 6.5021 5.86929Z" fill="#06254F"/>
<path d="M19.3454 6.47742C20.3617 6.47742 21.1824 7.30204 21.177 8.31654C21.1716 9.32019 20.3454 10.134 19.3399 10.1285C18.329 10.1285 17.5029 9.29849 17.5083 8.28942C17.5138 7.29119 18.3399 6.47742 19.3454 6.47742Z" fill="#06254F"/>
</g>
</svg>
