<svg width="16" height="14" viewBox="0 0 16 14" fill="none" xmlns="http://www.w3.org/2000/svg">
<path fill-rule="evenodd" clip-rule="evenodd" d="M1.65255 3.5C0.739873 3.5 0 4.23987 0 5.15255V10.2499C0 12.0177 0 12.9016 0.549184 13.4508C1.09837 14 1.98227 14 3.75006 14H12.25C14.0178 14 14.9017 14 15.4508 13.4508C16 12.9016 16 12.0177 16 10.2499V5.15255C16 4.23987 15.2602 3.5 14.3475 3.5C13.7253 3.5 13.1559 3.15055 12.8741 2.59583L12.1482 1.16667C11.9105 0.698673 11.7916 0.464676 11.6055 0.303948C11.5031 0.215565 11.3871 0.144375 11.262 0.0931518C11.0344 0 10.7719 0 10.247 0H5.75299C5.22809 0 4.96564 0 4.73805 0.0931518C4.6129 0.144375 4.49689 0.215565 4.39455 0.303948C4.20843 0.464676 4.08957 0.698673 3.85186 1.16667L3.12593 2.59583C2.84417 3.15055 2.27473 3.5 1.65255 3.5ZM10.3057 7.87476C10.3057 9.0989 9.29213 10.1247 8.00018 10.1247C6.70823 10.1247 5.69464 9.0989 5.69464 7.87476C5.69464 6.65061 6.70823 5.62478 8.00018 5.62478C9.29213 5.62478 10.3057 6.65061 10.3057 7.87476ZM11.5557 7.87476C11.5557 9.80775 9.96386 11.3748 8.00018 11.3748C6.0365 11.3748 4.44462 9.80775 4.44462 7.87476C4.44462 5.94176 6.0365 4.37476 8.00018 4.37476C9.96386 4.37476 11.5557 5.94176 11.5557 7.87476Z" fill="white"/>
</svg>
