<svg width="28" height="28" viewBox="0 0 28 28" fill="none" xmlns="http://www.w3.org/2000/svg">
<mask id="mask0_351_537" style="mask-type:alpha" maskUnits="userSpaceOnUse" x="0" y="0" width="28" height="28">
<rect width="28" height="28" fill="#D9D9D9"/>
</mask>
<g mask="url(#mask0_351_537)">
<path d="M11.5557 18.1177L11.5557 14.5883" stroke="#FF295A" stroke-width="1.5" stroke-linecap="round"/>
<path d="M16.4445 18.1177L16.4445 14.5883" stroke="#FF295A" stroke-width="1.5" stroke-linecap="round"/>
<path d="M3 8.70581H25V8.70581C23.7746 8.70581 23.1619 8.70581 22.6872 8.92844C22.1896 9.16182 21.7893 9.56206 21.556 10.0597C21.3333 10.5344 21.3333 11.1471 21.3333 12.3725V19.2941C21.3333 21.5124 21.3333 22.6216 20.6442 23.3108C19.955 23.9999 18.8458 23.9999 16.6275 23.9999H11.3726C9.15418 23.9999 8.04499 23.9999 7.35583 23.3108C6.66667 22.6216 6.66667 21.5124 6.66667 19.294V12.3725C6.66667 11.1471 6.66667 10.5344 6.44404 10.0597C6.21066 9.56206 5.81042 9.16182 5.31277 8.92844C4.83805 8.70581 4.22537 8.70581 3 8.70581V8.70581Z" stroke="#FF295A" stroke-width="1.5" stroke-linecap="round"/>
<path d="M11.6389 4.43599C11.7781 4.31091 12.085 4.20039 12.5119 4.12156C12.9388 4.04273 13.4619 4 14 4C14.5381 4 15.0612 4.04273 15.4881 4.12156C15.915 4.20039 16.2219 4.31091 16.3612 4.43599" stroke="#FF295A" stroke-width="1.5" stroke-linecap="round"/>
</g>
</svg>
