<svg width="16" height="17" viewBox="0 0 16 17" fill="none" xmlns="http://www.w3.org/2000/svg">
<path fill-rule="evenodd" clip-rule="evenodd" d="M16 3.66687H0V6.33354C0.98184 6.33354 1.77778 7.12948 1.77778 8.11132V11.0002C1.77778 13.8286 1.77778 15.2428 2.65646 16.1215C3.53514 17.0002 4.94935 17.0002 7.77777 17.0002H8.22222C11.0506 17.0002 12.4649 17.0002 13.3435 16.1215C14.2222 15.2428 14.2222 13.8286 14.2222 11.0002V8.11132C14.2222 7.12948 15.0182 6.33354 16 6.33354V3.66687ZM6.7778 8.11109C6.7778 7.55881 6.33009 7.11109 5.7778 7.11109C5.22552 7.11109 4.7778 7.55881 4.7778 8.11109V12.5555C4.7778 13.1078 5.22552 13.5555 5.7778 13.5555C6.33009 13.5555 6.7778 13.1078 6.7778 12.5555V8.11109ZM11.2222 8.11109C11.2222 7.55881 10.7745 7.11109 10.2222 7.11109C9.66996 7.11109 9.22225 7.55881 9.22225 8.11109V12.5555C9.22225 13.1078 9.66996 13.5555 10.2222 13.5555C10.7745 13.5555 11.2222 13.1078 11.2222 12.5555V8.11109Z" fill="#FF3C54"/>
<path d="M6.28285 1.32941C6.38414 1.23491 6.60733 1.1514 6.91781 1.09184C7.22829 1.03228 7.6087 1 8.00005 1C8.3914 1 8.77182 1.03228 9.0823 1.09184C9.39278 1.1514 9.61597 1.23491 9.71726 1.32941" stroke="#FF3C54" stroke-width="2" stroke-linecap="round"/>
</svg>
