<svg width="28" height="28" viewBox="0 0 28 28" fill="none" xmlns="http://www.w3.org/2000/svg">
<mask id="mask0_247_712" style="mask-type:alpha" maskUnits="userSpaceOnUse" x="0" y="0" width="28" height="28">
<rect width="28" height="28" fill="#D9D9D9"/>
</mask>
<g mask="url(#mask0_247_712)">
<path d="M17.0824 25.6672H10.646C4.82112 25.6672 2.3324 23.1785 2.3324 17.3536V10.9172C2.3324 5.09225 4.82112 2.60352 10.646 2.60352H12.7915C13.2313 2.60352 13.596 2.96824 13.596 3.40806C13.596 3.84788 13.2313 4.21261 12.7915 4.21261H10.646C5.70075 4.21261 3.94148 5.97189 3.94148 10.9172V17.3536C3.94148 22.2989 5.70075 24.0581 10.646 24.0581H17.0824C22.0276 24.0581 23.7869 22.2989 23.7869 17.3536V15.2081C23.7869 14.7683 24.1516 14.4036 24.5914 14.4036C25.0312 14.4036 25.396 14.7683 25.396 15.2081V17.3536C25.396 23.1785 22.9073 25.6672 17.0824 25.6672Z" fill="#06254F"/>
<path d="M10.1086 20.2392C9.45422 20.2392 8.85349 20.0032 8.41367 19.5741C7.88804 19.0485 7.66277 18.2868 7.78077 17.4823L8.24204 14.2534C8.32786 13.6312 8.73549 12.8266 9.17531 12.3868L17.6284 3.93369C19.7631 1.79896 21.93 1.79896 24.0647 3.93369C25.234 5.10297 25.7596 6.2937 25.6524 7.48443C25.5558 8.44989 25.0409 9.39389 24.0647 10.3594L15.6117 18.8125C15.1718 19.2523 14.3673 19.6599 13.7451 19.7457L10.5162 20.207C10.3768 20.2392 10.2373 20.2392 10.1086 20.2392ZM18.7655 5.07079L10.3124 13.5239C10.1086 13.7277 9.87258 14.1997 9.82967 14.4786L9.3684 17.7076C9.32549 18.0186 9.38985 18.2761 9.55076 18.437C9.71167 18.5979 9.96912 18.6623 10.2802 18.6194L13.5091 18.1581C13.788 18.1152 14.2707 17.8792 14.4638 17.6754L22.9169 9.22226C23.6142 8.52498 23.9789 7.9028 24.0325 7.32352C24.0969 6.62625 23.7322 5.88606 22.9169 5.06006C21.2006 3.34369 20.0206 3.82642 18.7655 5.07079Z" fill="#06254F"/>
<path d="M22.2841 11.8075C22.209 11.8075 22.1339 11.7968 22.0696 11.7753C19.2483 10.9815 17.0063 8.73949 16.2125 5.91821C16.0945 5.48912 16.3412 5.0493 16.7703 4.92057C17.1994 4.80257 17.6392 5.0493 17.7572 5.47839C18.4009 7.76331 20.2138 9.57622 22.4987 10.2199C22.9278 10.3379 23.1745 10.7884 23.0565 11.2175C22.9599 11.5822 22.6381 11.8075 22.2841 11.8075Z" fill="#06254F"/>
</g>
</svg>
