<svg width="24" height="24" viewBox="0 0 24 24" fill="none" xmlns="http://www.w3.org/2000/svg">
<mask id="mask0_608_954" style="mask-type:alpha" maskUnits="userSpaceOnUse" x="0" y="0" width="24" height="24">
<rect width="24" height="24" fill="#D9D9D9"/>
</mask>
<g mask="url(#mask0_608_954)">
<path d="M17.1995 7.06171C17.1995 8.34988 16.7545 9.53501 16.0184 10.4625C15.7617 10.7888 15.4707 11.0808 15.1454 11.3384C14.2211 12.077 13.04 12.5236 11.7562 12.5236C10.4725 12.5236 9.29138 12.077 8.36705 11.3384C8.04182 11.0808 7.75083 10.7888 7.49407 10.4625C6.75803 9.53501 6.31299 8.34988 6.31299 7.06171C6.31299 5.77354 6.75803 4.60559 7.49407 3.66093C7.75083 3.33459 8.04182 3.04261 8.36705 2.78497C9.29138 2.04642 10.4725 1.59985 11.7562 1.59985C13.04 1.59985 14.2211 2.04642 15.1454 2.78497C15.4707 3.04261 15.7617 3.33459 16.0184 3.66093C16.7545 4.58842 17.1995 5.77354 17.1995 7.06171Z" fill="#06254F"/>
<path d="M20.2974 19.2396C20.9136 19.8579 21.5298 20.4762 22.146 21.0945C22.3857 21.3178 22.4541 21.5926 22.3514 21.9018C22.1803 22.4342 21.5298 22.5716 21.1019 22.1594C20.5199 21.5926 19.955 21.0258 19.3902 20.4419C19.3388 20.3903 19.3046 20.3388 19.2532 20.2701C18.1064 21.0087 16.9082 21.2319 15.6244 20.8541C14.6316 20.5621 13.8442 19.9609 13.2793 19.085C12.1667 17.3502 12.4748 15.0487 13.9811 13.6746C15.5046 12.2834 17.8154 12.2147 19.4244 13.4685C21.0334 14.7395 21.6496 17.1613 20.2974 19.2396ZM14.1181 16.8006C14.1181 18.3121 15.3163 19.5315 16.8226 19.5315C18.3289 19.5315 19.5613 18.3293 19.5613 16.8006C19.5613 15.2892 18.3631 14.0697 16.8568 14.0697C15.3334 14.0697 14.1181 15.2892 14.1181 16.8006Z" fill="#06254F"/>
<path d="M13.4846 21.3177C13.4504 21.6784 13.1594 21.9532 12.7828 21.9704C12.7315 21.9704 12.6801 21.9704 12.6288 21.9704C12.5261 21.9704 12.4234 21.9704 12.3207 21.9704C9.32518 21.9704 6.34679 21.9704 3.35129 21.9704C2.51255 21.9704 1.86209 21.4894 1.65669 20.7165C1.63957 20.6822 1.62246 20.6478 1.62246 20.5963C1.62246 19.8234 1.55399 19.0333 1.65669 18.2776C1.79363 17.1955 2.47831 16.4054 3.29994 15.7528C4.34408 14.9112 5.5594 14.4131 6.82607 14.0352C8.40085 13.5715 10.0099 13.3654 11.6531 13.3654C12.1324 13.3654 12.4747 13.6573 12.4919 14.0867C12.4919 14.3615 12.372 14.5848 12.1666 14.7222C11.8756 15.3577 11.5333 16.4054 11.7045 17.6764C11.8414 18.707 12.2351 19.5142 12.6288 20.0639C12.7486 20.2356 12.8684 20.3902 12.9711 20.5104C13.3135 20.6478 13.5189 20.957 13.4846 21.3177Z" fill="#06254F"/>
</g>
</svg>
