<svg width="24" height="24" viewBox="0 0 24 24" fill="none" xmlns="http://www.w3.org/2000/svg">
<mask id="mask0_608_985" style="mask-type:alpha" maskUnits="userSpaceOnUse" x="0" y="0" width="24" height="24">
<rect width="24" height="24" fill="#D9D9D9"/>
</mask>
<g mask="url(#mask0_608_985)">
<path d="M11.7195 1.59998C11.9117 1.59998 12.104 1.59998 12.2962 1.59998C12.8905 1.72232 13.3274 2.10682 13.7294 2.52627C16.3859 5.20031 19.0425 7.85686 21.699 10.5134C21.7864 10.6008 21.8738 10.6882 21.9437 10.7756C22.8875 11.8941 22.2933 13.6244 20.8426 13.8865C20.6329 13.9215 20.4057 13.9215 20.1785 13.939C20.1785 14.0264 20.1785 14.1138 20.1785 14.1837C20.1785 16.1411 20.1785 18.1161 20.1785 20.0735C20.1785 21.4368 19.2173 22.398 17.854 22.398C16.8229 22.398 15.7742 22.398 14.7431 22.398C14.2362 22.398 14.009 22.1708 14.009 21.6465C14.009 20.091 14.009 18.5355 14.009 16.9626C14.009 16.2635 13.5896 15.844 12.8905 15.844C12.3137 15.844 11.737 15.8615 11.1602 15.844C10.4611 15.8265 9.98922 16.3159 9.98922 16.9975C10.0067 18.5355 9.98922 20.091 9.98922 21.629C9.98922 22.1533 9.76202 22.3805 9.2377 22.3805C8.22401 22.3805 7.21032 22.3805 6.19664 22.3805C4.78097 22.3805 3.81972 21.4368 3.81972 20.0036C3.81972 18.0462 3.81972 16.0887 3.81972 14.1312C3.81972 14.0438 3.81972 13.9739 3.81972 13.8865C3.6799 13.8865 3.55756 13.8865 3.45269 13.8865C2.70117 13.8516 2.15937 13.502 1.80983 12.8379C1.70496 12.6631 1.67001 12.4534 1.6001 12.2612C1.6001 12.0689 1.6001 11.8767 1.6001 11.6844C1.72244 11.0727 2.10694 10.6532 2.54387 10.2338C5.13052 7.66461 7.69969 5.07796 10.2863 2.49132C10.6708 2.12429 11.1078 1.72232 11.7195 1.59998Z" fill="#06254F"/>
</g>
</svg>
