<svg width="19" height="19" viewBox="0 0 19 19" fill="none" xmlns="http://www.w3.org/2000/svg">
<path d="M13.3045 18.6667C9.27235 18.6667 5.24025 18.6667 1.20816 18.6667C1.19833 18.6618 1.18851 18.6521 1.17869 18.6472C0.36834 18.4279 0 17.9505 0 17.1174C0 13.3417 0 9.57093 0 5.79525C0 4.87934 0.589345 4.28985 1.51265 4.28985C2.20513 4.28985 2.89761 4.28985 3.59009 4.28985C3.65394 4.28985 3.72269 4.28985 3.79145 4.28985C3.80618 4.23626 3.81601 4.20216 3.82092 4.16806C4.01736 3.1401 4.19908 2.11701 4.41026 1.09392C4.56251 0.358272 5.28446 -0.109425 6.02605 0.0221152C7.19982 0.231605 8.3736 0.455709 9.54247 0.670071C11.4136 1.01597 13.2799 1.36187 15.1511 1.71265C15.9761 1.86854 16.8012 2.00496 17.6214 2.18521C18.3188 2.34111 18.7657 3.03779 18.6478 3.73933C18.4956 4.60652 18.3286 5.46884 18.1616 6.33603C17.6067 9.26888 17.0566 12.2066 16.5016 15.1395C16.3494 15.9482 15.6127 16.4354 14.7975 16.2795C14.7041 16.26 14.6108 16.2454 14.493 16.2259C14.493 16.6205 14.5077 16.9908 14.4881 17.361C14.4586 17.9505 14.0608 18.4328 13.496 18.6082C13.4321 18.6228 13.3683 18.6472 13.3045 18.6667ZM0.918395 12.1969C2.31809 11.2809 3.68831 10.3894 5.0831 9.48324C5.90818 10.3066 6.72835 11.1202 7.55343 11.9386C8.09366 11.6122 8.62407 11.2907 9.1594 10.9692C10.6328 12.3381 12.0914 13.6974 13.5795 15.081C13.5844 14.9836 13.5893 14.9397 13.5893 14.891C13.5893 12.0166 13.5893 9.14221 13.5893 6.26782C13.5893 5.60038 13.1866 5.20089 12.5137 5.20089C9.03662 5.20089 5.55457 5.20089 2.07744 5.20089C1.35058 5.20089 0.923306 5.62474 0.923306 6.34577C0.923306 7.82681 0.923306 9.31272 0.923306 10.7938C0.918395 11.2468 0.918395 11.6999 0.918395 12.1969ZM4.7344 4.28985C4.83262 4.28985 4.9112 4.28985 4.98978 4.28985C7.63692 4.28985 10.2841 4.28985 12.9263 4.29472C13.1178 4.29472 13.3241 4.30934 13.5058 4.36293C14.1246 4.54806 14.493 5.07909 14.493 5.78064C14.493 7.40296 14.493 9.02528 14.4979 10.6476C14.4979 10.7597 14.5421 10.8863 14.6059 10.9789C15.0185 11.5538 15.4408 12.1189 15.8632 12.684C15.8976 12.7279 15.9369 12.7717 15.9909 12.8399C16.0056 12.7766 16.0154 12.7425 16.0253 12.7084C16.3052 11.242 16.5802 9.77555 16.8602 8.30912C17.1254 6.89629 17.3955 5.48345 17.6558 4.06575C17.7245 3.69549 17.5919 3.3642 17.2825 3.15471C17.1057 3.03292 16.8749 2.96471 16.6588 2.92086C14.3997 2.49214 12.1405 2.07803 9.88134 1.65905C8.75177 1.44957 7.62219 1.2352 6.49261 1.02572C5.81978 0.903919 5.30901 1.26444 5.18623 1.93188C5.10765 2.35573 5.02416 2.77958 4.94558 3.20343C4.867 3.55907 4.80316 3.91472 4.7344 4.28985Z" fill="#06254F"/>
<path d="M12.2782 7.87054C12.2782 8.79132 11.5268 9.54158 10.5986 9.54158C9.67036 9.54158 8.91894 8.79132 8.92385 7.86567C8.92876 6.94976 9.67036 6.20924 10.5937 6.20437C11.5219 6.1995 12.2782 6.94976 12.2782 7.87054Z" fill="#06254F"/>
</svg>
