<svg width="24" height="24" viewBox="0 0 24 24" fill="none" xmlns="http://www.w3.org/2000/svg">
<mask id="mask0_608_976" style="mask-type:alpha" maskUnits="userSpaceOnUse" x="0" y="0" width="24" height="24">
<rect width="24" height="24" fill="#D9D9D9"/>
</mask>
<g mask="url(#mask0_608_976)">
<path d="M9.11354 4.80005C11.215 4.80005 13.3164 4.80005 15.4251 4.80005C16.2772 4.80005 16.8405 5.59822 16.5516 6.38174C16.3783 6.84307 15.9667 7.12865 15.4323 7.1433C14.934 7.15062 14.443 7.1433 13.9447 7.1433C10.2618 7.1433 6.57881 7.1433 2.89587 7.1433C2.28205 7.1433 1.83432 6.85039 1.66822 6.34513C1.40103 5.58357 1.95708 4.80737 2.78033 4.80005C4.67957 4.80005 6.58603 4.80005 8.49249 4.80005C8.69469 4.80005 8.90412 4.80005 9.11354 4.80005Z" fill="#06254F"/>
<path d="M9.10642 12.9866C7.0122 12.9866 4.91798 12.9866 2.82376 12.9866C2.08717 12.9866 1.56723 12.452 1.60333 11.7564C1.63222 11.1705 2.09439 10.7019 2.65766 10.658C2.75877 10.6506 2.85264 10.6506 2.95374 10.6506C7.06275 10.6506 11.1645 10.6506 15.2735 10.6506C15.4469 10.6506 15.6202 10.6506 15.779 10.6946C16.3351 10.8483 16.6673 11.3756 16.6023 11.976C16.5445 12.5179 16.0823 12.9646 15.5191 12.9719C14.2481 12.9866 12.9771 12.9792 11.6989 12.9792C10.8396 12.9866 9.97299 12.9866 9.10642 12.9866Z" fill="#06254F"/>
<path d="M16.6166 17.1825C17.8226 15.9669 18.9924 14.7733 20.1695 13.587C20.2706 13.4845 20.3717 13.3747 20.4801 13.2795C20.9422 12.8694 21.6211 12.8914 22.0543 13.3161C22.4804 13.7408 22.5165 14.4072 22.141 14.8832C22.0832 14.9564 22.0182 15.015 21.9532 15.0809C20.4873 16.5674 19.0213 18.0539 17.5482 19.533C16.9343 20.1555 16.2988 20.1555 15.685 19.533C14.9484 18.7935 14.2118 18.0539 13.4825 17.2996C13.1286 16.9335 13.0492 16.4282 13.2586 15.9816C13.4608 15.5495 13.9085 15.2859 14.3779 15.3152C14.6885 15.3372 14.9484 15.4763 15.1651 15.696C15.6417 16.1939 16.1255 16.6772 16.6166 17.1825Z" fill="#06254F"/>
<path d="M6.79549 18.8378C5.4523 18.8378 4.10911 18.8378 2.76592 18.8378C2.1882 18.8378 1.74047 18.457 1.62493 17.9005C1.51661 17.3952 1.76936 16.846 2.25319 16.6263C2.43373 16.5458 2.65037 16.5018 2.85257 16.5018C5.4884 16.4945 8.12423 16.4945 10.7528 16.4945C11.4894 16.4945 12.0094 16.9998 12.0022 17.6808C11.9949 18.3545 11.475 18.8378 10.7528 18.8378C9.43132 18.8378 8.11701 18.8378 6.79549 18.8378Z" fill="#06254F"/>
</g>
</svg>
