<svg width="28" height="28" viewBox="0 0 28 28" fill="none" xmlns="http://www.w3.org/2000/svg">
<mask id="mask0_247_718" style="mask-type:alpha" maskUnits="userSpaceOnUse" x="0" y="0" width="28" height="28">
<rect width="28" height="28" fill="#D9D9D9"/>
</mask>
<g mask="url(#mask0_247_718)">
<path fill-rule="evenodd" clip-rule="evenodd" d="M8.45957 9.27197H19.5404C20.7918 9.27195 21.8004 9.27194 22.5937 9.37691C23.4174 9.4859 24.1108 9.71905 24.6616 10.2611C25.2124 10.8032 25.4493 11.4857 25.56 12.2963C25.6667 13.0771 25.6667 14.0699 25.6666 15.3015V18.1039C25.6667 19.9708 25.6667 21.4409 25.5098 22.5894C25.3488 23.7679 25.0114 24.7086 24.2596 25.4485C23.5078 26.1884 22.5521 26.5205 21.3547 26.6789C20.1877 26.8333 18.6941 26.8333 16.7972 26.8333H11.2028C9.30588 26.8333 7.81225 26.8333 6.64526 26.6789C5.44787 26.5205 4.49213 26.1884 3.74035 25.4485C2.98857 24.7086 2.65117 23.7679 2.49019 22.5894C2.33329 21.4409 2.3333 19.9709 2.33331 18.1039L2.33331 15.3015C2.33329 14.0698 2.33328 13.0771 2.43994 12.2963C2.55067 11.4857 2.78757 10.8032 3.33834 10.2611C3.88911 9.71905 4.58259 9.4859 5.40622 9.37691C6.19952 9.27194 7.20818 9.27195 8.45957 9.27197ZM5.58911 10.7157C4.91768 10.8046 4.56213 10.9671 4.30888 11.2163C4.05563 11.4656 3.89052 11.8155 3.80025 12.4763C3.70732 13.1566 3.70586 14.0582 3.70586 15.3509V18.0526C3.70586 19.9821 3.70732 21.3613 3.8505 22.4094C3.99102 23.4381 4.25664 24.0462 4.71089 24.4933C5.16514 24.9403 5.78296 25.2018 6.82815 25.3401C7.89308 25.481 9.2944 25.4824 11.2549 25.4824H16.7451C18.7056 25.4824 20.1069 25.481 21.1718 25.3401C22.217 25.2018 22.8348 24.9403 23.2891 24.4933C23.7433 24.0462 24.0089 23.4381 24.1495 22.4094C24.2926 21.3613 24.2941 19.9821 24.2941 18.0526V15.3509C24.2941 14.0582 24.2926 13.1566 24.1997 12.4763C24.1094 11.8155 23.9443 11.4656 23.6911 11.2163C23.4378 10.9671 23.0823 10.8046 22.4108 10.7157C21.7197 10.6243 20.8036 10.6228 19.4902 10.6228H8.50978C7.19633 10.6228 6.28028 10.6243 5.58911 10.7157Z" fill="#06254F"/>
<path fill-rule="evenodd" clip-rule="evenodd" d="M8.11194 6.96115C8.11194 3.76092 10.7479 1.16663 13.9995 1.16663C17.251 1.16663 19.887 3.76092 19.887 6.96115V9.80509C19.887 10.1781 19.5797 10.4805 19.2007 10.4805C18.8217 10.4805 18.5144 10.1781 18.5144 9.80509V6.96115C18.5144 4.50699 16.493 2.5175 13.9995 2.5175C11.5059 2.5175 9.48449 4.50699 9.48449 6.96115V9.80509C9.48449 10.1781 9.17723 10.4805 8.79821 10.4805C8.41919 10.4805 8.11194 10.1781 8.11194 9.80509V6.96115Z" fill="#06254F"/>
<path d="M16.7457 18.0524C16.7457 19.5446 15.5167 20.7542 14.0007 20.7542C12.4846 20.7542 11.2556 19.5446 11.2556 18.0524C11.2556 16.5603 12.4846 15.3507 14.0007 15.3507C15.5167 15.3507 16.7457 16.5603 16.7457 18.0524Z" fill="#06254F"/>
</g>
</svg>
