<svg width="28" height="28" viewBox="0 0 28 28" fill="none" xmlns="http://www.w3.org/2000/svg">
<mask id="mask0_630_1272" style="mask-type:alpha" maskUnits="userSpaceOnUse" x="0" y="0" width="28" height="28">
<rect width="28" height="28" fill="#D9D9D9"/>
</mask>
<g mask="url(#mask0_630_1272)">
<path d="M8.02782 9.79825C8.39143 6.49808 11.1799 4 14.5 4V4C17.8201 4 20.6086 6.49807 20.9722 9.79825L21.2727 12.5257C21.3099 12.8632 21.3285 13.032 21.3539 13.1981C21.4925 14.1044 21.7858 14.9801 22.2211 15.7869C22.3008 15.9349 22.3877 16.0808 22.5613 16.3726L23.2378 17.5097C24.0019 18.7939 24.3839 19.436 24.1309 19.9285C24.118 19.9537 24.104 19.9783 24.089 20.0023C23.7951 20.4715 23.048 20.4715 21.5537 20.4715H7.44633C5.95205 20.4715 5.2049 20.4715 4.91104 20.0023C4.89603 19.9783 4.88203 19.9537 4.8691 19.9285C4.61608 19.436 4.9981 18.7939 5.76215 17.5097L6.43872 16.3726C6.61234 16.0808 6.69915 15.9349 6.77894 15.7869C7.21421 14.9801 7.50754 14.1044 7.64613 13.1981C7.67153 13.032 7.69012 12.8632 7.72731 12.5257L8.02782 9.79825Z" stroke="#06254F" stroke-width="1.8"/>
<path d="M11.1191 20.9479C11.3185 21.8235 11.7579 22.5972 12.3691 23.1491C12.9804 23.7009 13.7293 24 14.4998 24C15.2703 24 16.0192 23.7009 16.6305 23.1491C17.2417 22.5972 17.6811 21.8235 17.8806 20.9479" stroke="#06254F" stroke-width="1.8" stroke-linecap="round"/>
</g>
</svg>
