<svg width="21" height="18" viewBox="0 0 21 18" fill="none" xmlns="http://www.w3.org/2000/svg">
<path d="M0.000244141 10.0944C0.033074 9.92739 0.0659038 9.76037 0.131563 9.55995C0.591181 7.75615 2.10135 6.52022 3.93982 6.48682C4.82623 6.48682 5.74546 6.48682 6.63187 6.48682C6.69753 6.48682 6.79602 6.48682 6.89451 6.48682C6.96017 7.52233 7.32129 8.42422 8.04355 9.1591C5.51565 10.1278 4.53076 12.0652 4.72774 14.7041C3.05342 14.6373 1.51042 14.3033 0.000244141 13.8022C0.000244141 12.5663 0.000244141 11.3303 0.000244141 10.0944Z" fill="white"/>
<path d="M15.9228 16.9753C15.3318 17.3094 14.7409 17.4764 14.1171 17.6434C12.3443 18.0777 10.5387 18.0777 8.73305 17.8438C7.61683 17.6768 6.50062 17.4096 5.41724 17.0755C5.41724 17.0421 5.41724 17.0087 5.41724 16.9419C5.41724 15.8396 5.41724 14.7373 5.41724 13.635C5.45007 11.564 7.05873 9.86037 9.09418 9.76016C10.1776 9.72676 11.2609 9.72676 12.3443 9.76016C13.8873 9.82697 15.3647 11.0963 15.7586 12.6329C15.8571 13.0337 15.9228 13.468 15.9228 13.8688C15.9228 14.9043 15.9228 15.9398 15.9228 16.9753Z" fill="white"/>
<path d="M20.9786 13.7691C19.6325 14.4372 18.1552 14.671 16.645 14.7712C16.645 14.671 16.645 14.5374 16.645 14.4372C16.645 13.7357 16.645 13.0343 16.448 12.3662C15.9556 10.863 14.9707 9.82751 13.5262 9.29305C13.4605 9.25965 13.3949 9.25965 13.2964 9.22624C14.0186 8.49136 14.4126 7.58947 14.4454 6.55396C14.7081 6.55396 14.9379 6.55396 15.1677 6.55396C15.8243 6.55396 16.4809 6.55396 17.1375 6.55396C19.1401 6.58736 20.8472 8.22413 20.9457 10.2618C21.0442 11.3975 20.9786 12.5666 20.9786 13.7691Z" fill="white"/>
<path d="M7.58398 6.35332C7.58398 4.61633 8.96284 3.21338 10.67 3.21338C12.3771 3.21338 13.756 4.61633 13.756 6.35332C13.756 8.0903 12.3771 9.49326 10.67 9.49326C8.93001 9.49326 7.58398 8.0903 7.58398 6.35332Z" fill="white"/>
<path d="M8.30634 3.31373C7.51842 3.9484 7.05881 4.78349 6.89466 5.75219C5.71278 6.55388 4.16978 6.38686 3.11923 5.35135C2.1015 4.41605 1.8717 2.77927 2.59395 1.57675C3.34904 0.307409 4.82638 -0.293856 6.20523 0.173794C7.55125 0.608041 8.43766 1.94418 8.30634 3.31373Z" fill="white"/>
<path d="M14.4453 5.95263C14.2811 4.7167 13.6902 3.7814 12.6725 3.07992C12.6396 2.011 13.3619 0.674861 14.7407 0.173807C16.0539 -0.293844 17.5313 0.20721 18.2864 1.37634C19.0743 2.54546 18.9758 4.14883 18.0565 5.18435C17.1373 6.25326 15.6271 6.5873 14.4453 5.95263Z" fill="white"/>
</svg>
