<svg width="28" height="28" viewBox="0 0 28 28" fill="none" xmlns="http://www.w3.org/2000/svg">
<mask id="mask0_267_1601" style="mask-type:alpha" maskUnits="userSpaceOnUse" x="0" y="0" width="28" height="28">
<rect width="28" height="28" fill="#D9D9D9"/>
</mask>
<g mask="url(#mask0_267_1601)">
<path d="M8.08393 9.44603C8.77135 8.65853 9.45878 7.88617 10.1309 7.11382C11.0169 6.09915 11.9029 5.09963 12.8042 4.08496C13.4917 3.3126 14.5304 3.29746 15.2178 4.08496C16.7302 5.79626 18.2425 7.52271 19.7548 9.24916C19.8159 9.30974 19.8618 9.37031 19.9381 9.44603C20.4575 9.11286 20.9769 8.79483 21.4963 8.4768C22.5045 7.85589 23.4975 7.21983 24.5057 6.59891C25.0403 6.28088 25.5903 6.28088 26.1249 6.59891C26.6443 6.91694 26.8735 7.40156 26.8276 8.00733C26.7971 8.32536 26.7513 8.62824 26.6902 8.94627C26.186 12.0357 25.6972 15.1251 25.1931 18.2146C25.0098 19.3201 24.8418 20.4408 24.6432 21.5463C24.4599 22.5761 23.6349 23.2728 22.5809 23.3333C22.5198 23.3333 22.4434 23.3333 22.3823 23.3333C16.7913 23.3333 11.2155 23.3333 5.62449 23.3333C4.38713 23.3333 3.54695 22.6216 3.33308 21.41C3.21088 20.6679 3.08867 19.9259 2.98173 19.1989C2.53873 16.5033 2.111 13.7924 1.66799 11.0968C1.51523 10.1427 1.3472 9.18858 1.19444 8.21935C1.08751 7.56814 1.28609 6.99266 1.85131 6.6292C2.41652 6.26574 3.01229 6.29603 3.59278 6.65949C5.08983 7.58329 6.5716 8.50709 8.08393 9.44603ZM3.05811 8.40108C3.53167 11.3542 4.00523 14.2316 4.46351 17.109C10.8336 17.109 17.1885 17.109 23.5586 17.109C24.0321 14.2165 24.4904 11.3391 24.964 8.41622C24.8265 8.49195 24.7501 8.55252 24.6737 8.59796C23.3753 9.4006 22.0921 10.2184 20.7936 11.021C20.0298 11.5057 19.266 11.3996 18.6702 10.7182C17.2648 9.12801 15.8747 7.53786 14.4846 5.96285C14.3318 5.79626 14.1791 5.61453 14.0263 5.4328C13.9347 5.52367 13.8736 5.59939 13.8124 5.65997C12.3307 7.35612 10.8336 9.05228 9.33657 10.7333C8.75608 11.3845 7.99228 11.4905 7.25903 11.0362C6.64798 10.6576 6.05222 10.279 5.44118 9.90036C4.6621 9.41575 3.88302 8.93113 3.05811 8.40108ZM23.253 18.9264C17.0815 18.9264 10.9253 18.9264 4.76903 18.9264C4.76903 19.0172 4.76903 19.0929 4.78431 19.1535C4.89124 19.7744 4.9829 20.3953 5.08983 21.0163C5.18148 21.5312 5.24259 21.5766 5.76197 21.5766C11.2613 21.5766 16.7607 21.5766 22.2448 21.5766C22.3212 21.5766 22.3976 21.5766 22.474 21.5766C22.7184 21.5615 22.8559 21.4403 22.8864 21.2131C22.917 21.0163 22.9475 20.8194 22.9781 20.6074C23.0697 20.047 23.1614 19.5018 23.253 18.9264Z" fill="#06254F"/>
</g>
</svg>
