<svg width="13" height="16" viewBox="0 0 13 16" fill="none" xmlns="http://www.w3.org/2000/svg">
<path d="M10.4315 10.973C9.92467 10.973 9.45262 11.1172 9.05457 11.3651L5.03735 8.6205C5.10184 8.40019 5.1371 8.16781 5.1371 7.92726C5.1371 7.68668 5.10184 7.4543 5.03735 7.23402L8.94612 4.56353C9.36552 4.85504 9.87779 5.02704 10.4314 5.02704C11.85 5.02704 13 3.90169 13 2.51354C13 1.12538 11.85 0 10.4315 0C9.0129 0 7.8629 1.12535 7.8629 2.5135C7.8629 2.69683 7.88351 2.87538 7.92159 3.04755L3.91355 5.78586C3.52232 5.55006 3.06178 5.41376 2.56855 5.41376C1.14999 5.41376 0 6.53911 0 7.92726C0 9.31541 1.14996 10.4408 2.56855 10.4408C3.06175 10.4408 3.52232 10.3045 3.91355 10.0687L7.95253 12.8281C7.89445 13.038 7.8629 13.2586 7.8629 13.4865C7.8629 14.8747 9.0129 16 10.4315 16C11.85 16 13 14.8747 13 13.4865C13 12.0983 11.85 10.973 10.4315 10.973Z" fill="white"/>
</svg>
