<svg width="22" height="18" viewBox="0 0 25 20" fill="none" xmlns="http://www.w3.org/2000/svg">
    <path
        d="M16.8614 9.99996C16.8614 12.5617 14.8791 14.5833 12.5003 14.5833C10.1215 14.5833 8.13916 12.5617 8.13916 9.99996C8.13916 7.43825 10.1215 5.41663 12.5003 5.41663C14.8791 5.41663 16.8614 7.43825 16.8614 9.99996Z"
        stroke="#92A3B0" stroke-width="1.5" />
    <path
        d="M23.1675 8.84219C23.5672 9.36226 23.7671 9.6223 23.7671 10C23.7671 10.3777 23.5672 10.6377 23.1675 11.1578C21.4636 13.3745 17.3294 18 12.5 18C7.67056 18 3.53643 13.3745 1.83253 11.1578C1.43276 10.6377 1.23287 10.3777 1.23287 10C1.23287 9.6223 1.43276 9.36226 1.83253 8.84219C3.53643 6.62553 7.67056 2 12.5 2C17.3294 2 21.4636 6.62553 23.1675 8.84219Z"
        stroke="#92A3B0" stroke-width="1.5" />
    <path d="M4 1L22 19" stroke="#92A3B0" stroke-width="1.5" />
</svg>
