<svg width="20" height="20" viewBox="0 0 20 20" fill="none" xmlns="http://www.w3.org/2000/svg">
<g clip-path="url(#clip0_613_1328)">
<path d="M4.90048 18.6094C4.90048 18.7418 4.90048 18.808 4.96671 18.8743C5.03293 19.4703 4.76803 19.9339 4.23823 20.0001C3.70843 20.0663 3.31108 19.7352 3.17863 19.2054C3.04618 18.3445 2.8475 17.4173 2.71505 16.5564C2.64883 16.0928 2.8475 15.6955 3.31108 15.563C4.10578 15.2981 4.90048 15.0332 5.69518 14.7683C6.15876 14.6359 6.68856 14.9008 6.82101 15.3643C6.95346 15.8279 6.75479 16.3577 6.22499 16.4902C5.96008 16.5564 5.69518 16.6888 5.36406 16.7551C5.89386 17.0862 6.35744 17.3511 6.88724 17.616C10.066 18.8743 13.576 18.0796 15.9601 15.6292C17.2846 14.2385 17.9468 12.5829 18.0793 10.7286C18.3442 6.82129 16.0263 3.37758 12.3177 2.25175C9.47002 1.3246 6.75479 1.98685 4.43691 3.97361C4.37068 4.10606 4.30446 4.17228 4.23823 4.23851C3.84088 4.56963 3.31108 4.56963 2.91373 4.23851C2.5826 3.84116 2.5826 3.31135 2.97995 2.914C3.9071 1.98685 5.03293 1.19215 6.29121 0.728572C9.27134 -0.397256 12.1853 -0.264805 14.9667 1.3246C17.6819 2.84778 19.4038 5.23188 19.8674 8.34447C20.5296 12.5829 19.0064 15.9604 15.4965 18.3445C13.576 19.669 11.3905 20.1325 9.07267 19.9339C7.68194 19.8014 6.35744 19.4041 5.09916 18.6756C5.03293 18.6756 4.96671 18.6756 4.90048 18.6094Z" fill="#06254F"/>
<path d="M10.4634 9.53648C10.5959 9.53648 10.6621 9.53648 10.7283 9.53648C11.6555 9.53648 12.6489 9.53648 13.576 9.53648C14.172 9.53648 14.5694 9.93384 14.5694 10.4636C14.5694 10.9934 14.172 11.3908 13.576 11.3908C12.2515 11.3908 10.927 11.3908 9.60251 11.3908C9.00648 11.3908 8.60913 10.9934 8.60913 10.3974C8.60913 8.60933 8.60913 6.82125 8.60913 5.03317C8.60913 4.50337 9.00648 4.03979 9.53628 4.03979C10.0661 4.03979 10.4634 4.43715 10.4634 4.96695C10.4634 6.35768 10.4634 7.7484 10.4634 9.20536C10.4634 9.33781 10.4634 9.47026 10.4634 9.53648Z" fill="#06254F"/>
<path d="M1.85424 9.27159C1.85424 9.47027 1.85424 9.60272 1.85424 9.80139C1.85424 10.265 1.45689 10.6623 0.993314 10.6623C0.529738 10.6623 0.132387 10.3312 0.0661621 9.80139C0.0661621 9.53649 0.0661621 9.27159 0.132387 9.00669C0.198612 8.54311 0.662189 8.21199 1.12576 8.27821C1.52312 8.41066 1.85424 8.80801 1.85424 9.27159Z" fill="#06254F"/>
<path d="M2.71513 6.15913C2.6489 6.49026 2.51645 6.82138 2.25155 7.15251C1.98665 7.41741 1.52308 7.48364 1.12573 7.21873C0.7946 7.02006 0.595924 6.55648 0.794599 6.15913C0.860825 5.96046 0.92705 5.76178 1.0595 5.56311C1.25818 5.23198 1.65553 5.0333 2.05288 5.16576C2.45023 5.29821 2.71513 5.62933 2.71513 6.15913Z" fill="#06254F"/>
<path d="M1.39069 13.9737C0.993337 13.9737 0.662211 13.775 0.529761 13.3777C0.463535 13.179 0.39731 12.9803 0.331085 12.7816C0.198635 12.3843 0.463535 11.9207 0.860886 11.722C1.32446 11.5896 1.78804 11.722 1.98671 12.1194C2.11916 12.3843 2.25161 12.7154 2.31784 13.0465C2.38407 13.5763 1.92049 13.9737 1.39069 13.9737Z" fill="#06254F"/>
</g>
<defs>
<clipPath id="clip0_613_1328">
<rect width="20" height="20" fill="white"/>
</clipPath>
</defs>
</svg>
