<svg width="273" height="175" viewBox="0 0 273 175" fill="none" xmlns="http://www.w3.org/2000/svg">
<circle cx="137" cy="70" r="70" fill="#C19752"/>
<path d="M160.793 97H112.208L142.313 44H152.088L123.226 94.8427H149.774L138.582 75.1353H148.357L160.793 97Z" fill="white"/>
<path d="M178 96.9999H168.225L155.79 75.1353H165.593L178 96.9999Z" fill="white"/>
<path d="M134.88 44L104.775 97H95L125.106 44H134.88Z" fill="white"/>
<path d="M15.011 175H0V160H2.75202V172.25H15.011V175ZM34.2251 175H20.415V160H34.2251V162.75H23.217V166.1H32.0735V168.9H23.217V172.25H34.2751V175H34.2251ZM51.1875 175H48.7357L40.0293 160H43.2317L49.9366 171.65L56.6415 160H59.8438L51.1875 175ZM79.4082 175H65.5981V160H79.4082V162.75H68.3501V166.1H77.2066V168.9H68.3501V172.25H79.4082V175ZM100.724 175H85.7128V160H88.4648V172.25H100.724V175ZM119.938 175H106.128V160H119.938V162.75H108.88V166.1H117.736V168.9H108.88V172.25H119.938V175ZM138.351 175H126.242V160H138.351C138.902 160 139.352 160.15 139.802 160.4C140.253 160.65 140.603 161 140.853 161.45C141.103 161.9 141.253 162.35 141.253 162.9V172.1C141.253 172.65 141.103 173.1 140.853 173.55C140.603 174 140.253 174.35 139.802 174.6C139.352 174.9 138.852 175 138.351 175ZM129.245 172.25H138.201C138.251 172.25 138.351 172.2 138.401 172.2C138.451 172.15 138.501 172.1 138.501 172V163.05C138.501 163 138.451 162.95 138.401 162.85C138.351 162.8 138.301 162.8 138.201 162.8H129.245C129.195 162.8 129.095 162.8 129.045 162.85C128.994 162.9 128.994 162.95 128.994 163.05V172C128.994 172.05 128.994 172.15 129.045 172.2C129.095 172.25 129.195 172.25 129.245 172.25ZM161.168 175C160.618 175 160.167 174.85 159.717 174.6C159.267 174.35 158.916 174 158.666 173.55C158.416 173.1 158.266 172.65 158.266 172.1V160H161.018V171.95C161.018 172 161.018 172.1 161.068 172.15C161.118 172.2 161.168 172.2 161.268 172.2H170.225C170.275 172.2 170.375 172.15 170.425 172.15C170.475 172.1 170.525 172.05 170.525 171.95V160H173.277V172.1C173.277 172.65 173.127 173.1 172.877 173.55C172.626 174 172.276 174.35 171.826 174.6C171.376 174.85 170.925 175 170.375 175H161.168ZM182.484 175H179.732V160.05H191.79C192.341 160.05 192.791 160.2 193.242 160.45C193.692 160.7 194.042 161.05 194.292 161.5C194.543 161.95 194.693 162.4 194.693 162.95V167C194.693 167.55 194.543 168 194.292 168.45C194.042 168.9 193.692 169.25 193.242 169.5C192.791 169.75 192.291 169.9 191.79 169.9H182.484V175ZM182.734 167.1H191.69C191.74 167.1 191.841 167.1 191.891 167.05C191.941 167 191.991 166.95 191.991 166.9V163.05C191.991 163 191.941 162.95 191.891 162.85C191.841 162.75 191.791 162.8 191.69 162.8H182.734C182.684 162.8 182.584 162.8 182.534 162.85C182.484 162.9 182.484 162.95 182.484 163.05V166.9C182.484 166.95 182.484 167 182.534 167.05C182.584 167.1 182.634 167.1 182.734 167.1ZM225.916 175H210.905V160H213.657V172.25H225.916V175ZM233.721 175H230.969V160H233.721V175ZM242.728 175H239.976V160H253.786V162.75H242.728V166.1H251.584V168.9H242.728V175ZM273 175H259.19V160H273V162.75H261.942V166.1H270.798V168.9H261.942V172.25H273V175Z" fill="white"/>
</svg>
